<?xml version="1.0" encoding="utf-8"?>
<!-- Generator: Adobe Illustrator 17.1.0, SVG Export Plug-In . SVG Version: 6.00 Build 0)  -->
<!DOCTYPE svg PUBLIC "-//W3C//DTD SVG 1.1//EN" "http://www.w3.org/Graphics/SVG/1.1/DTD/svg11.dtd">
<svg version="1.1" id="Lager_1" xmlns="http://www.w3.org/2000/svg" xmlns:xlink="http://www.w3.org/1999/xlink" x="0px" y="0px"
	 viewBox="0 0 1119.7 1119.7" enable-background="new 0 0 1119.7 1119.7" xml:space="preserve">
<g>
	<path fill="#FFFFFF" d="M667.8,490.7v136.7c0,5-1.7,9.2-5.2,12.7c-3.5,3.5-7.7,5.3-12.7,5.4h-180c-4.8,0-9.1-1.8-12.7-5.4
		s-5.4-7.9-5.2-12.7V490.7c0-5,1.7-9.2,5.2-12.7c3.5-3.5,7.7-5.3,12.7-5.4h180c5,0,9.2,1.8,12.7,5.4
		C666.1,481.6,667.8,485.8,667.8,490.7z M649.9,487h-180c-0.9,0-1.7,0.3-2.4,1c-0.7,0.7-1.1,1.5-1.2,2.6v136.7c0,1.1,0.4,2,1.2,2.6
		s1.6,1,2.4,1h180c0.9,0,1.8-0.3,2.6-1c0.8-0.7,1.1-1.5,1-2.6V490.7c0-0.9-0.3-1.8-1-2.6C651.8,487.2,650.9,486.9,649.9,487z
		 M523.9,522.9c0,6-2.1,11.2-6.3,15.3c-4.2,4.2-9.3,6.3-15.3,6.5c-6,0.1-11.2-2-15.3-6.5c-4.2-4.4-6.3-9.5-6.3-15.3
		c0-5.8,2.1-10.8,6.3-15.1c4.2-4.3,9.3-6.5,15.3-6.5s11.2,2.2,15.3,6.5C521.8,512.1,523.9,517.1,523.9,522.9z M639.2,566.3v50.4
		H480.7v-21.6l35.9-36.1l18.1,17.9l57.5-57.5L639.2,566.3z"/>
</g>
</svg>
